# Braids Synth block. Generated by tools/make-block-mesh.py -- edit that,
# not this. The cage is Special Effects' text block (wizz6rd + dagriefaa,
# Workshop 2870726285) with its lettering stripped; the note is a formula.
o SynthBlock
v 0.900248 1.000276 0.900248
v 0.900248 1.000276 -0.900248
v 0.601632 0.835600 -0.601631
v 0.601632 0.835599 0.601632
v 0.900248 0.900248 1.000276
v -0.900248 0.900248 1.000276
v -0.601632 0.601631 0.835600
v 0.601632 0.601631 0.835600
v -0.900248 -1.000276 0.900248
v -0.900248 -1.000276 -0.900248
v -0.601632 -0.835599 -0.601632
v -0.601632 -0.835600 0.601631
v 0.900248 -0.900248 -1.000276
v -0.900248 -0.900248 -1.000276
v -0.601632 -0.601631 -0.835600
v 0.601632 -0.601631 -0.835600
v -0.900248 1.000276 0.900248
v -0.601632 0.835599 0.601632
v -0.900248 -0.900248 1.000276
v -1.000276 -0.900248 0.900248
v -1.000276 0.900248 0.900248
v -1.000276 -0.900248 -0.900248
v -0.900248 1.000276 -0.900248
v -0.900248 0.900248 -1.000276
v -1.000276 0.900248 -0.900248
v 0.900248 -0.900248 1.000276
v 0.900248 -1.000276 0.900248
v 1.000276 -0.900248 0.900248
v 1.000276 0.900248 0.900248
v 1.000276 -0.900248 -0.900248
v 0.900248 -1.000276 -0.900248
v 1.000276 0.900248 -0.900248
v 0.900248 0.900248 -1.000276
v -0.835600 -0.601631 -0.601632
v -0.835600 0.601632 -0.601631
v -0.835600 -0.601632 0.601631
v 0.601632 -0.835600 0.601631
v -0.601632 -0.601632 0.835599
v 0.835600 0.601631 0.601632
v 0.835600 0.601632 -0.601631
v -0.601632 0.835600 -0.601631
v 0.601632 -0.601632 0.835599
v -0.835600 0.601631 0.601632
v 0.601632 0.601632 -0.835599
v -0.601632 0.601632 -0.835599
v 0.835600 -0.601632 0.601631
v 0.835600 -0.601631 -0.601632
v 0.601632 -0.835599 -0.601632
v -0.145799 -0.093380 -0.445460
v -0.161696 -0.093380 -0.418266
v -0.185238 -0.093380 -0.395847
v -0.145799 0.093380 -0.445460
v -0.185238 0.093380 -0.395847
v -0.161696 0.093380 -0.418266
v -0.145799 -0.093380 -0.445460
v -0.185238 -0.093380 -0.395847
v -0.215244 -0.093380 -0.379326
v -0.145799 0.093380 -0.445460
v -0.215244 0.093380 -0.379326
v -0.185238 0.093380 -0.395847
v -0.145799 -0.093380 -0.445460
v -0.215244 -0.093380 -0.379326
v -0.250209 -0.093380 -0.369532
v -0.145799 0.093380 -0.445460
v -0.250209 0.093380 -0.369532
v -0.215244 0.093380 -0.379326
v -0.145799 -0.093380 -0.445460
v -0.250209 -0.093380 -0.369532
v -0.288381 -0.093380 -0.366957
v -0.145799 0.093380 -0.445460
v -0.288381 0.093380 -0.366957
v -0.250209 0.093380 -0.369532
v -0.145799 -0.093380 -0.445460
v -0.288381 -0.093380 -0.366957
v -0.327845 -0.093380 -0.371728
v -0.145799 0.093380 -0.445460
v -0.327845 0.093380 -0.371728
v -0.288381 0.093380 -0.366957
v -0.145799 -0.093380 -0.445460
v -0.327845 -0.093380 -0.371728
v -0.366622 -0.093380 -0.383607
v -0.145799 0.093380 -0.445460
v -0.366622 0.093380 -0.383607
v -0.327845 0.093380 -0.371728
v -0.145799 -0.093380 -0.445460
v -0.366622 -0.093380 -0.383607
v -0.402768 -0.093380 -0.401999
v -0.145799 0.093380 -0.445460
v -0.402768 0.093380 -0.401999
v -0.366622 0.093380 -0.383607
v -0.145799 -0.093380 -0.445460
v -0.402768 -0.093380 -0.401999
v -0.434470 -0.093380 -0.425981
v -0.145799 0.093380 -0.445460
v -0.434470 0.093380 -0.425981
v -0.402768 0.093380 -0.401999
v -0.145799 -0.093380 -0.445460
v -0.434470 -0.093380 -0.425981
v -0.460140 -0.093380 -0.454350
v -0.145799 0.093380 -0.445460
v -0.460140 0.093380 -0.454350
v -0.434470 0.093380 -0.425981
v -0.145799 -0.093380 -0.445460
v -0.460140 -0.093380 -0.454350
v -0.478488 -0.093380 -0.485684
v -0.145799 0.093380 -0.445460
v -0.478488 0.093380 -0.485684
v -0.460140 0.093380 -0.454350
v -0.145799 -0.093380 -0.445460
v -0.478488 -0.093380 -0.485684
v -0.488596 -0.093380 -0.518412
v -0.145799 0.093380 -0.445460
v -0.488596 0.093380 -0.518412
v -0.478488 0.093380 -0.485684
v -0.145799 -0.093380 -0.445460
v -0.488596 -0.093380 -0.518412
v -0.489957 -0.093380 -0.550892
v -0.145799 0.093380 -0.445460
v -0.489957 0.093380 -0.550892
v -0.488596 0.093380 -0.518412
v -0.145799 -0.093380 -0.445460
v -0.489957 -0.093380 -0.550892
v -0.482502 -0.093380 -0.581497
v -0.145799 0.093380 -0.445460
v -0.482502 0.093380 -0.581497
v -0.489957 0.093380 -0.550892
v -0.145799 -0.093380 -0.445460
v -0.482502 -0.093380 -0.581497
v -0.466605 -0.093380 -0.608690
v -0.145799 0.093380 -0.445460
v -0.466605 0.093380 -0.608690
v -0.482502 0.093380 -0.581497
v -0.145799 -0.093380 -0.445460
v -0.466605 -0.093380 -0.608690
v -0.443063 -0.093380 -0.631110
v -0.145799 0.093380 -0.445460
v -0.443063 0.093380 -0.631110
v -0.466605 0.093380 -0.608690
v -0.145799 -0.093380 -0.445460
v -0.443063 -0.093380 -0.631110
v -0.413058 -0.093380 -0.647630
v -0.145799 0.093380 -0.445460
v -0.413058 0.093380 -0.647630
v -0.443063 0.093380 -0.631110
v -0.145799 -0.093380 -0.445460
v -0.413058 -0.093380 -0.647630
v -0.378092 -0.093380 -0.657424
v -0.145799 0.093380 -0.445460
v -0.378092 0.093380 -0.657424
v -0.413058 0.093380 -0.647630
v -0.145799 -0.093380 -0.445460
v -0.378092 -0.093380 -0.657424
v -0.339921 -0.093380 -0.660000
v -0.145799 0.093380 -0.445460
v -0.339921 0.093380 -0.660000
v -0.378092 0.093380 -0.657424
v -0.145799 -0.093380 -0.445460
v -0.339921 -0.093380 -0.660000
v -0.300457 -0.093380 -0.655229
v -0.145799 0.093380 -0.445460
v -0.300457 0.093380 -0.655229
v -0.339921 0.093380 -0.660000
v -0.145799 -0.093380 -0.445460
v -0.300457 -0.093380 -0.655229
v -0.261679 -0.093380 -0.643349
v -0.145799 0.093380 -0.445460
v -0.261679 0.093380 -0.643349
v -0.300457 0.093380 -0.655229
v -0.145799 -0.093380 -0.445460
v -0.261679 -0.093380 -0.643349
v -0.225533 -0.093380 -0.624958
v -0.145799 0.093380 -0.445460
v -0.225533 0.093380 -0.624958
v -0.261679 0.093380 -0.643349
v -0.145799 -0.093380 -0.445460
v -0.225533 -0.093380 -0.624958
v -0.193831 -0.093380 -0.600976
v -0.145799 0.093380 -0.445460
v -0.193831 0.093380 -0.600976
v -0.225533 0.093380 -0.624958
v -0.145799 -0.093380 -0.445460
v -0.193831 -0.093380 -0.600976
v -0.168162 -0.093380 -0.572607
v -0.145799 0.093380 -0.445460
v -0.168162 0.093380 -0.572607
v -0.193831 0.093380 -0.600976
v -0.145799 -0.093380 -0.445460
v -0.168162 -0.093380 -0.572607
v -0.149813 -0.093380 -0.541273
v -0.145799 0.093380 -0.445460
v -0.149813 0.093380 -0.541273
v -0.168162 0.093380 -0.572607
v -0.145799 -0.093380 -0.445460
v -0.149813 -0.093380 -0.541273
v -0.139705 -0.093380 -0.508545
v -0.145799 0.093380 -0.445460
v -0.139705 0.093380 -0.508545
v -0.149813 0.093380 -0.541273
v -0.145799 -0.093380 -0.445460
v -0.139705 -0.093380 -0.508545
v -0.138344 -0.093380 -0.476064
v -0.145799 0.093380 -0.445460
v -0.138344 0.093380 -0.476064
v -0.139705 0.093380 -0.508545
v -0.145799 -0.093380 -0.445460
v -0.161696 0.093380 -0.418266
v -0.161696 -0.093380 -0.418266
v -0.145799 -0.093380 -0.445460
v -0.145799 0.093380 -0.445460
v -0.161696 0.093380 -0.418266
v -0.161696 -0.093380 -0.418266
v -0.185238 0.093380 -0.395847
v -0.185238 -0.093380 -0.395847
v -0.161696 -0.093380 -0.418266
v -0.161696 0.093380 -0.418266
v -0.185238 0.093380 -0.395847
v -0.185238 -0.093380 -0.395847
v -0.215244 0.093380 -0.379326
v -0.215244 -0.093380 -0.379326
v -0.185238 -0.093380 -0.395847
v -0.185238 0.093380 -0.395847
v -0.215244 0.093380 -0.379326
v -0.215244 -0.093380 -0.379326
v -0.250209 0.093380 -0.369532
v -0.250209 -0.093380 -0.369532
v -0.215244 -0.093380 -0.379326
v -0.215244 0.093380 -0.379326
v -0.250209 0.093380 -0.369532
v -0.250209 -0.093380 -0.369532
v -0.288381 0.093380 -0.366957
v -0.288381 -0.093380 -0.366957
v -0.250209 -0.093380 -0.369532
v -0.250209 0.093380 -0.369532
v -0.288381 0.093380 -0.366957
v -0.288381 -0.093380 -0.366957
v -0.327845 0.093380 -0.371728
v -0.327845 -0.093380 -0.371728
v -0.288381 -0.093380 -0.366957
v -0.288381 0.093380 -0.366957
v -0.327845 0.093380 -0.371728
v -0.327845 -0.093380 -0.371728
v -0.366622 0.093380 -0.383607
v -0.366622 -0.093380 -0.383607
v -0.327845 -0.093380 -0.371728
v -0.327845 0.093380 -0.371728
v -0.366622 0.093380 -0.383607
v -0.366622 -0.093380 -0.383607
v -0.402768 0.093380 -0.401999
v -0.402768 -0.093380 -0.401999
v -0.366622 -0.093380 -0.383607
v -0.366622 0.093380 -0.383607
v -0.402768 0.093380 -0.401999
v -0.402768 -0.093380 -0.401999
v -0.434470 0.093380 -0.425981
v -0.434470 -0.093380 -0.425981
v -0.402768 -0.093380 -0.401999
v -0.402768 0.093380 -0.401999
v -0.434470 0.093380 -0.425981
v -0.434470 -0.093380 -0.425981
v -0.460140 0.093380 -0.454350
v -0.460140 -0.093380 -0.454350
v -0.434470 -0.093380 -0.425981
v -0.434470 0.093380 -0.425981
v -0.460140 0.093380 -0.454350
v -0.460140 -0.093380 -0.454350
v -0.478488 0.093380 -0.485684
v -0.478488 -0.093380 -0.485684
v -0.460140 -0.093380 -0.454350
v -0.460140 0.093380 -0.454350
v -0.478488 0.093380 -0.485684
v -0.478488 -0.093380 -0.485684
v -0.488596 0.093380 -0.518412
v -0.488596 -0.093380 -0.518412
v -0.478488 -0.093380 -0.485684
v -0.478488 0.093380 -0.485684
v -0.488596 0.093380 -0.518412
v -0.488596 -0.093380 -0.518412
v -0.489957 0.093380 -0.550892
v -0.489957 -0.093380 -0.550892
v -0.488596 -0.093380 -0.518412
v -0.488596 0.093380 -0.518412
v -0.489957 0.093380 -0.550892
v -0.489957 -0.093380 -0.550892
v -0.482502 0.093380 -0.581497
v -0.482502 -0.093380 -0.581497
v -0.489957 -0.093380 -0.550892
v -0.489957 0.093380 -0.550892
v -0.482502 0.093380 -0.581497
v -0.482502 -0.093380 -0.581497
v -0.466605 0.093380 -0.608690
v -0.466605 -0.093380 -0.608690
v -0.482502 -0.093380 -0.581497
v -0.482502 0.093380 -0.581497
v -0.466605 0.093380 -0.608690
v -0.466605 -0.093380 -0.608690
v -0.443063 0.093380 -0.631110
v -0.443063 -0.093380 -0.631110
v -0.466605 -0.093380 -0.608690
v -0.466605 0.093380 -0.608690
v -0.443063 0.093380 -0.631110
v -0.443063 -0.093380 -0.631110
v -0.413058 0.093380 -0.647630
v -0.413058 -0.093380 -0.647630
v -0.443063 -0.093380 -0.631110
v -0.443063 0.093380 -0.631110
v -0.413058 0.093380 -0.647630
v -0.413058 -0.093380 -0.647630
v -0.378092 0.093380 -0.657424
v -0.378092 -0.093380 -0.657424
v -0.413058 -0.093380 -0.647630
v -0.413058 0.093380 -0.647630
v -0.378092 0.093380 -0.657424
v -0.378092 -0.093380 -0.657424
v -0.339921 0.093380 -0.660000
v -0.339921 -0.093380 -0.660000
v -0.378092 -0.093380 -0.657424
v -0.378092 0.093380 -0.657424
v -0.339921 0.093380 -0.660000
v -0.339921 -0.093380 -0.660000
v -0.300457 0.093380 -0.655229
v -0.300457 -0.093380 -0.655229
v -0.339921 -0.093380 -0.660000
v -0.339921 0.093380 -0.660000
v -0.300457 0.093380 -0.655229
v -0.300457 -0.093380 -0.655229
v -0.261679 0.093380 -0.643349
v -0.261679 -0.093380 -0.643349
v -0.300457 -0.093380 -0.655229
v -0.300457 0.093380 -0.655229
v -0.261679 0.093380 -0.643349
v -0.261679 -0.093380 -0.643349
v -0.225533 0.093380 -0.624958
v -0.225533 -0.093380 -0.624958
v -0.261679 -0.093380 -0.643349
v -0.261679 0.093380 -0.643349
v -0.225533 0.093380 -0.624958
v -0.225533 -0.093380 -0.624958
v -0.193831 0.093380 -0.600976
v -0.193831 -0.093380 -0.600976
v -0.225533 -0.093380 -0.624958
v -0.225533 0.093380 -0.624958
v -0.193831 0.093380 -0.600976
v -0.193831 -0.093380 -0.600976
v -0.168162 0.093380 -0.572607
v -0.168162 -0.093380 -0.572607
v -0.193831 -0.093380 -0.600976
v -0.193831 0.093380 -0.600976
v -0.168162 0.093380 -0.572607
v -0.168162 -0.093380 -0.572607
v -0.149813 0.093380 -0.541273
v -0.149813 -0.093380 -0.541273
v -0.168162 -0.093380 -0.572607
v -0.168162 0.093380 -0.572607
v -0.149813 0.093380 -0.541273
v -0.149813 -0.093380 -0.541273
v -0.139705 0.093380 -0.508545
v -0.139705 -0.093380 -0.508545
v -0.149813 -0.093380 -0.541273
v -0.149813 0.093380 -0.541273
v -0.139705 0.093380 -0.508545
v -0.139705 -0.093380 -0.508545
v -0.138344 0.093380 -0.476064
v -0.138344 -0.093380 -0.476064
v -0.139705 -0.093380 -0.508545
v -0.139705 0.093380 -0.508545
v -0.138344 0.093380 -0.476064
v -0.138344 -0.093380 -0.476064
v -0.145799 0.093380 -0.445460
v -0.145799 -0.093380 -0.445460
v -0.138344 -0.093380 -0.476064
v -0.138344 0.093380 -0.476064
v -0.145799 0.093380 -0.445460
v 0.476736 -0.093380 -0.196446
v 0.460839 -0.093380 -0.169252
v 0.437297 -0.093380 -0.146833
v 0.476736 0.093380 -0.196446
v 0.437297 0.093380 -0.146833
v 0.460839 0.093380 -0.169252
v 0.476736 -0.093380 -0.196446
v 0.437297 -0.093380 -0.146833
v 0.407291 -0.093380 -0.130312
v 0.476736 0.093380 -0.196446
v 0.407291 0.093380 -0.130312
v 0.437297 0.093380 -0.146833
v 0.476736 -0.093380 -0.196446
v 0.407291 -0.093380 -0.130312
v 0.372326 -0.093380 -0.120518
v 0.476736 0.093380 -0.196446
v 0.372326 0.093380 -0.120518
v 0.407291 0.093380 -0.130312
v 0.476736 -0.093380 -0.196446
v 0.372326 -0.093380 -0.120518
v 0.334154 -0.093380 -0.117943
v 0.476736 0.093380 -0.196446
v 0.334154 0.093380 -0.117943
v 0.372326 0.093380 -0.120518
v 0.476736 -0.093380 -0.196446
v 0.334154 -0.093380 -0.117943
v 0.294690 -0.093380 -0.122714
v 0.476736 0.093380 -0.196446
v 0.294690 0.093380 -0.122714
v 0.334154 0.093380 -0.117943
v 0.476736 -0.093380 -0.196446
v 0.294690 -0.093380 -0.122714
v 0.255913 -0.093380 -0.134593
v 0.476736 0.093380 -0.196446
v 0.255913 0.093380 -0.134593
v 0.294690 0.093380 -0.122714
v 0.476736 -0.093380 -0.196446
v 0.255913 -0.093380 -0.134593
v 0.219767 -0.093380 -0.152985
v 0.476736 0.093380 -0.196446
v 0.219767 0.093380 -0.152985
v 0.255913 0.093380 -0.134593
v 0.476736 -0.093380 -0.196446
v 0.219767 -0.093380 -0.152985
v 0.188064 -0.093380 -0.176967
v 0.476736 0.093380 -0.196446
v 0.188064 0.093380 -0.176967
v 0.219767 0.093380 -0.152985
v 0.476736 -0.093380 -0.196446
v 0.188064 -0.093380 -0.176967
v 0.162395 -0.093380 -0.205336
v 0.476736 0.093380 -0.196446
v 0.162395 0.093380 -0.205336
v 0.188064 0.093380 -0.176967
v 0.476736 -0.093380 -0.196446
v 0.162395 -0.093380 -0.205336
v 0.144047 -0.093380 -0.236670
v 0.476736 0.093380 -0.196446
v 0.144047 0.093380 -0.236670
v 0.162395 0.093380 -0.205336
v 0.476736 -0.093380 -0.196446
v 0.144047 -0.093380 -0.236670
v 0.133939 -0.093380 -0.269398
v 0.476736 0.093380 -0.196446
v 0.133939 0.093380 -0.269398
v 0.144047 0.093380 -0.236670
v 0.476736 -0.093380 -0.196446
v 0.133939 -0.093380 -0.269398
v 0.132578 -0.093380 -0.301878
v 0.476736 0.093380 -0.196446
v 0.132578 0.093380 -0.301878
v 0.133939 0.093380 -0.269398
v 0.476736 -0.093380 -0.196446
v 0.132578 -0.093380 -0.301878
v 0.140033 -0.093380 -0.332483
v 0.476736 0.093380 -0.196446
v 0.140033 0.093380 -0.332483
v 0.132578 0.093380 -0.301878
v 0.476736 -0.093380 -0.196446
v 0.140033 -0.093380 -0.332483
v 0.155930 -0.093380 -0.359676
v 0.476736 0.093380 -0.196446
v 0.155930 0.093380 -0.359676
v 0.140033 0.093380 -0.332483
v 0.476736 -0.093380 -0.196446
v 0.155930 -0.093380 -0.359676
v 0.179471 -0.093380 -0.382096
v 0.476736 0.093380 -0.196446
v 0.179471 0.093380 -0.382096
v 0.155930 0.093380 -0.359676
v 0.476736 -0.093380 -0.196446
v 0.179471 -0.093380 -0.382096
v 0.209477 -0.093380 -0.398616
v 0.476736 0.093380 -0.196446
v 0.209477 0.093380 -0.398616
v 0.179471 0.093380 -0.382096
v 0.476736 -0.093380 -0.196446
v 0.209477 -0.093380 -0.398616
v 0.244443 -0.093380 -0.408410
v 0.476736 0.093380 -0.196446
v 0.244443 0.093380 -0.408410
v 0.209477 0.093380 -0.398616
v 0.476736 -0.093380 -0.196446
v 0.244443 -0.093380 -0.408410
v 0.282614 -0.093380 -0.410986
v 0.476736 0.093380 -0.196446
v 0.282614 0.093380 -0.410986
v 0.244443 0.093380 -0.408410
v 0.476736 -0.093380 -0.196446
v 0.282614 -0.093380 -0.410986
v 0.322078 -0.093380 -0.406215
v 0.476736 0.093380 -0.196446
v 0.322078 0.093380 -0.406215
v 0.282614 0.093380 -0.410986
v 0.476736 -0.093380 -0.196446
v 0.322078 -0.093380 -0.406215
v 0.360856 -0.093380 -0.394335
v 0.476736 0.093380 -0.196446
v 0.360856 0.093380 -0.394335
v 0.322078 0.093380 -0.406215
v 0.476736 -0.093380 -0.196446
v 0.360856 -0.093380 -0.394335
v 0.397002 -0.093380 -0.375944
v 0.476736 0.093380 -0.196446
v 0.397002 0.093380 -0.375944
v 0.360856 0.093380 -0.394335
v 0.476736 -0.093380 -0.196446
v 0.397002 -0.093380 -0.375944
v 0.428704 -0.093380 -0.351962
v 0.476736 0.093380 -0.196446
v 0.428704 0.093380 -0.351962
v 0.397002 0.093380 -0.375944
v 0.476736 -0.093380 -0.196446
v 0.428704 -0.093380 -0.351962
v 0.454373 -0.093380 -0.323593
v 0.476736 0.093380 -0.196446
v 0.454373 0.093380 -0.323593
v 0.428704 0.093380 -0.351962
v 0.476736 -0.093380 -0.196446
v 0.454373 -0.093380 -0.323593
v 0.472722 -0.093380 -0.292259
v 0.476736 0.093380 -0.196446
v 0.472722 0.093380 -0.292259
v 0.454373 0.093380 -0.323593
v 0.476736 -0.093380 -0.196446
v 0.472722 -0.093380 -0.292259
v 0.482830 -0.093380 -0.259531
v 0.476736 0.093380 -0.196446
v 0.482830 0.093380 -0.259531
v 0.472722 0.093380 -0.292259
v 0.476736 -0.093380 -0.196446
v 0.482830 -0.093380 -0.259531
v 0.484191 -0.093380 -0.227050
v 0.476736 0.093380 -0.196446
v 0.484191 0.093380 -0.227050
v 0.482830 0.093380 -0.259531
v 0.476736 -0.093380 -0.196446
v 0.460839 0.093380 -0.169252
v 0.460839 -0.093380 -0.169252
v 0.476736 -0.093380 -0.196446
v 0.476736 0.093380 -0.196446
v 0.460839 0.093380 -0.169252
v 0.460839 -0.093380 -0.169252
v 0.437297 0.093380 -0.146833
v 0.437297 -0.093380 -0.146833
v 0.460839 -0.093380 -0.169252
v 0.460839 0.093380 -0.169252
v 0.437297 0.093380 -0.146833
v 0.437297 -0.093380 -0.146833
v 0.407291 0.093380 -0.130312
v 0.407291 -0.093380 -0.130312
v 0.437297 -0.093380 -0.146833
v 0.437297 0.093380 -0.146833
v 0.407291 0.093380 -0.130312
v 0.407291 -0.093380 -0.130312
v 0.372326 0.093380 -0.120518
v 0.372326 -0.093380 -0.120518
v 0.407291 -0.093380 -0.130312
v 0.407291 0.093380 -0.130312
v 0.372326 0.093380 -0.120518
v 0.372326 -0.093380 -0.120518
v 0.334154 0.093380 -0.117943
v 0.334154 -0.093380 -0.117943
v 0.372326 -0.093380 -0.120518
v 0.372326 0.093380 -0.120518
v 0.334154 0.093380 -0.117943
v 0.334154 -0.093380 -0.117943
v 0.294690 0.093380 -0.122714
v 0.294690 -0.093380 -0.122714
v 0.334154 -0.093380 -0.117943
v 0.334154 0.093380 -0.117943
v 0.294690 0.093380 -0.122714
v 0.294690 -0.093380 -0.122714
v 0.255913 0.093380 -0.134593
v 0.255913 -0.093380 -0.134593
v 0.294690 -0.093380 -0.122714
v 0.294690 0.093380 -0.122714
v 0.255913 0.093380 -0.134593
v 0.255913 -0.093380 -0.134593
v 0.219767 0.093380 -0.152985
v 0.219767 -0.093380 -0.152985
v 0.255913 -0.093380 -0.134593
v 0.255913 0.093380 -0.134593
v 0.219767 0.093380 -0.152985
v 0.219767 -0.093380 -0.152985
v 0.188064 0.093380 -0.176967
v 0.188064 -0.093380 -0.176967
v 0.219767 -0.093380 -0.152985
v 0.219767 0.093380 -0.152985
v 0.188064 0.093380 -0.176967
v 0.188064 -0.093380 -0.176967
v 0.162395 0.093380 -0.205336
v 0.162395 -0.093380 -0.205336
v 0.188064 -0.093380 -0.176967
v 0.188064 0.093380 -0.176967
v 0.162395 0.093380 -0.205336
v 0.162395 -0.093380 -0.205336
v 0.144047 0.093380 -0.236670
v 0.144047 -0.093380 -0.236670
v 0.162395 -0.093380 -0.205336
v 0.162395 0.093380 -0.205336
v 0.144047 0.093380 -0.236670
v 0.144047 -0.093380 -0.236670
v 0.133939 0.093380 -0.269398
v 0.133939 -0.093380 -0.269398
v 0.144047 -0.093380 -0.236670
v 0.144047 0.093380 -0.236670
v 0.133939 0.093380 -0.269398
v 0.133939 -0.093380 -0.269398
v 0.132578 0.093380 -0.301878
v 0.132578 -0.093380 -0.301878
v 0.133939 -0.093380 -0.269398
v 0.133939 0.093380 -0.269398
v 0.132578 0.093380 -0.301878
v 0.132578 -0.093380 -0.301878
v 0.140033 0.093380 -0.332483
v 0.140033 -0.093380 -0.332483
v 0.132578 -0.093380 -0.301878
v 0.132578 0.093380 -0.301878
v 0.140033 0.093380 -0.332483
v 0.140033 -0.093380 -0.332483
v 0.155930 0.093380 -0.359676
v 0.155930 -0.093380 -0.359676
v 0.140033 -0.093380 -0.332483
v 0.140033 0.093380 -0.332483
v 0.155930 0.093380 -0.359676
v 0.155930 -0.093380 -0.359676
v 0.179471 0.093380 -0.382096
v 0.179471 -0.093380 -0.382096
v 0.155930 -0.093380 -0.359676
v 0.155930 0.093380 -0.359676
v 0.179471 0.093380 -0.382096
v 0.179471 -0.093380 -0.382096
v 0.209477 0.093380 -0.398616
v 0.209477 -0.093380 -0.398616
v 0.179471 -0.093380 -0.382096
v 0.179471 0.093380 -0.382096
v 0.209477 0.093380 -0.398616
v 0.209477 -0.093380 -0.398616
v 0.244443 0.093380 -0.408410
v 0.244443 -0.093380 -0.408410
v 0.209477 -0.093380 -0.398616
v 0.209477 0.093380 -0.398616
v 0.244443 0.093380 -0.408410
v 0.244443 -0.093380 -0.408410
v 0.282614 0.093380 -0.410986
v 0.282614 -0.093380 -0.410986
v 0.244443 -0.093380 -0.408410
v 0.244443 0.093380 -0.408410
v 0.282614 0.093380 -0.410986
v 0.282614 -0.093380 -0.410986
v 0.322078 0.093380 -0.406215
v 0.322078 -0.093380 -0.406215
v 0.282614 -0.093380 -0.410986
v 0.282614 0.093380 -0.410986
v 0.322078 0.093380 -0.406215
v 0.322078 -0.093380 -0.406215
v 0.360856 0.093380 -0.394335
v 0.360856 -0.093380 -0.394335
v 0.322078 -0.093380 -0.406215
v 0.322078 0.093380 -0.406215
v 0.360856 0.093380 -0.394335
v 0.360856 -0.093380 -0.394335
v 0.397002 0.093380 -0.375944
v 0.397002 -0.093380 -0.375944
v 0.360856 -0.093380 -0.394335
v 0.360856 0.093380 -0.394335
v 0.397002 0.093380 -0.375944
v 0.397002 -0.093380 -0.375944
v 0.428704 0.093380 -0.351962
v 0.428704 -0.093380 -0.351962
v 0.397002 -0.093380 -0.375944
v 0.397002 0.093380 -0.375944
v 0.428704 0.093380 -0.351962
v 0.428704 -0.093380 -0.351962
v 0.454373 0.093380 -0.323593
v 0.454373 -0.093380 -0.323593
v 0.428704 -0.093380 -0.351962
v 0.428704 0.093380 -0.351962
v 0.454373 0.093380 -0.323593
v 0.454373 -0.093380 -0.323593
v 0.472722 0.093380 -0.292259
v 0.472722 -0.093380 -0.292259
v 0.454373 -0.093380 -0.323593
v 0.454373 0.093380 -0.323593
v 0.472722 0.093380 -0.292259
v 0.472722 -0.093380 -0.292259
v 0.482830 0.093380 -0.259531
v 0.482830 -0.093380 -0.259531
v 0.472722 -0.093380 -0.292259
v 0.472722 0.093380 -0.292259
v 0.482830 0.093380 -0.259531
v 0.482830 -0.093380 -0.259531
v 0.484191 0.093380 -0.227050
v 0.484191 -0.093380 -0.227050
v 0.482830 -0.093380 -0.259531
v 0.482830 0.093380 -0.259531
v 0.484191 0.093380 -0.227050
v 0.484191 -0.093380 -0.227050
v 0.476736 0.093380 -0.196446
v 0.476736 -0.093380 -0.196446
v 0.484191 -0.093380 -0.227050
v 0.484191 0.093380 -0.227050
v 0.476736 0.093380 -0.196446
v -0.189644 -0.093380 -0.513478
v -0.132578 -0.093380 -0.513478
v -0.132578 -0.093380 0.399573
v -0.189644 0.093380 -0.513478
v -0.132578 0.093380 0.399573
v -0.132578 0.093380 -0.513478
v -0.189644 -0.093380 -0.513478
v -0.132578 -0.093380 0.399573
v -0.189644 -0.093380 0.399573
v -0.189644 0.093380 -0.513478
v -0.189644 0.093380 0.399573
v -0.132578 0.093380 0.399573
v -0.189644 -0.093380 -0.513478
v -0.132578 0.093380 -0.513478
v -0.132578 -0.093380 -0.513478
v -0.189644 -0.093380 -0.513478
v -0.189644 0.093380 -0.513478
v -0.132578 0.093380 -0.513478
v -0.132578 -0.093380 -0.513478
v -0.132578 0.093380 0.399573
v -0.132578 -0.093380 0.399573
v -0.132578 -0.093380 -0.513478
v -0.132578 0.093380 -0.513478
v -0.132578 0.093380 0.399573
v -0.132578 -0.093380 0.399573
v -0.189644 0.093380 0.399573
v -0.189644 -0.093380 0.399573
v -0.132578 -0.093380 0.399573
v -0.132578 0.093380 0.399573
v -0.189644 0.093380 0.399573
v -0.189644 -0.093380 0.399573
v -0.189644 0.093380 -0.513478
v -0.189644 -0.093380 -0.513478
v -0.189644 -0.093380 0.399573
v -0.189644 0.093380 0.399573
v -0.189644 0.093380 -0.513478
v 0.432891 -0.093380 -0.264464
v 0.489957 -0.093380 -0.264464
v 0.489957 -0.093380 0.648587
v 0.432891 0.093380 -0.264464
v 0.489957 0.093380 0.648587
v 0.489957 0.093380 -0.264464
v 0.432891 -0.093380 -0.264464
v 0.489957 -0.093380 0.648587
v 0.432891 -0.093380 0.648587
v 0.432891 0.093380 -0.264464
v 0.432891 0.093380 0.648587
v 0.489957 0.093380 0.648587
v 0.432891 -0.093380 -0.264464
v 0.489957 0.093380 -0.264464
v 0.489957 -0.093380 -0.264464
v 0.432891 -0.093380 -0.264464
v 0.432891 0.093380 -0.264464
v 0.489957 0.093380 -0.264464
v 0.489957 -0.093380 -0.264464
v 0.489957 0.093380 0.648587
v 0.489957 -0.093380 0.648587
v 0.489957 -0.093380 -0.264464
v 0.489957 0.093380 -0.264464
v 0.489957 0.093380 0.648587
v 0.489957 -0.093380 0.648587
v 0.432891 0.093380 0.648587
v 0.432891 -0.093380 0.648587
v 0.489957 -0.093380 0.648587
v 0.489957 0.093380 0.648587
v 0.432891 0.093380 0.648587
v 0.432891 -0.093380 0.648587
v 0.432891 0.093380 -0.264464
v 0.432891 -0.093380 -0.264464
v 0.432891 -0.093380 0.648587
v 0.432891 0.093380 0.648587
v 0.432891 0.093380 -0.264464
v -0.189644 -0.093380 0.268841
v 0.489957 -0.093380 0.540681
v 0.489957 -0.093380 0.660000
v -0.189644 0.093380 0.268841
v 0.489957 0.093380 0.660000
v 0.489957 0.093380 0.540681
v -0.189644 -0.093380 0.268841
v 0.489957 -0.093380 0.660000
v -0.189644 -0.093380 0.388160
v -0.189644 0.093380 0.268841
v -0.189644 0.093380 0.388160
v 0.489957 0.093380 0.660000
v -0.189644 -0.093380 0.268841
v 0.489957 0.093380 0.540681
v 0.489957 -0.093380 0.540681
v -0.189644 -0.093380 0.268841
v -0.189644 0.093380 0.268841
v 0.489957 0.093380 0.540681
v 0.489957 -0.093380 0.540681
v 0.489957 0.093380 0.660000
v 0.489957 -0.093380 0.660000
v 0.489957 -0.093380 0.540681
v 0.489957 0.093380 0.540681
v 0.489957 0.093380 0.660000
v 0.489957 -0.093380 0.660000
v -0.189644 0.093380 0.388160
v -0.189644 -0.093380 0.388160
v 0.489957 -0.093380 0.660000
v 0.489957 0.093380 0.660000
v -0.189644 0.093380 0.388160
v -0.189644 -0.093380 0.388160
v -0.189644 0.093380 0.268841
v -0.189644 -0.093380 0.268841
v -0.189644 -0.093380 0.388160
v -0.189644 0.093380 0.388160
v -0.189644 0.093380 0.268841
v -0.189644 -0.093380 0.071705
v 0.489957 -0.093380 0.343545
v 0.489957 -0.093380 0.462864
v -0.189644 0.093380 0.071705
v 0.489957 0.093380 0.462864
v 0.489957 0.093380 0.343545
v -0.189644 -0.093380 0.071705
v 0.489957 -0.093380 0.462864
v -0.189644 -0.093380 0.191024
v -0.189644 0.093380 0.071705
v -0.189644 0.093380 0.191024
v 0.489957 0.093380 0.462864
v -0.189644 -0.093380 0.071705
v 0.489957 0.093380 0.343545
v 0.489957 -0.093380 0.343545
v -0.189644 -0.093380 0.071705
v -0.189644 0.093380 0.071705
v 0.489957 0.093380 0.343545
v 0.489957 -0.093380 0.343545
v 0.489957 0.093380 0.462864
v 0.489957 -0.093380 0.462864
v 0.489957 -0.093380 0.343545
v 0.489957 0.093380 0.343545
v 0.489957 0.093380 0.462864
v 0.489957 -0.093380 0.462864
v -0.189644 0.093380 0.191024
v -0.189644 -0.093380 0.191024
v 0.489957 -0.093380 0.462864
v 0.489957 0.093380 0.462864
v -0.189644 0.093380 0.191024
v -0.189644 -0.093380 0.191024
v -0.189644 0.093380 0.071705
v -0.189644 -0.093380 0.071705
v -0.189644 -0.093380 0.191024
v -0.189644 0.093380 0.191024
v -0.189644 0.093380 0.071705
vt 0.815456 0.815032
vt 0.812246 0.766669
vt 0.819341 0.770017
vt 0.822138 0.811404
vt 0.812169 0.818585
vt 0.890468 0.896864
vt 0.852591 0.880206
vt 0.808699 0.825683
vt 0.680212 0.900306
vt 0.668048 0.688726
vt 0.692928 0.728939
vt 0.697527 0.859547
vt 0.762544 0.766232
vt 0.676300 0.679751
vt 0.717691 0.698349
vt 0.765645 0.759465
vt 0.897965 0.888771
vt 0.876119 0.852499
vt 0.688836 0.908046
vt 0.663422 0.927922
vt 0.916339 0.913063
vt 0.647226 0.661628
vt 0.897133 0.686459
vt 0.888697 0.678455
vt 0.914590 0.659225
vt 0.763594 0.819124
vt 0.760164 0.815970
vt 0.764136 0.815116
vt 0.811307 0.814500
vt 0.763380 0.770057
vt 0.759501 0.769515
vt 0.808292 0.767522
vt 0.808836 0.763486
vt 0.613582 0.629035
vt 0.945341 0.629035
vt 0.631752 0.959738
vt 0.753298 0.812732
vt 0.725766 0.884555
vt 0.805099 0.809086
vt 0.803217 0.773488
vt 0.879308 0.724902
vt 0.767245 0.825794
vt 0.944855 0.943025
vt 0.805385 0.756935
vt 0.849182 0.701546
vt 0.769410 0.809302
vt 0.768977 0.774988
vt 0.753057 0.772963
vt 0.250000 0.250000
vn -0.482900 0.875700 0.000000
vn 0.000000 -0.482900 0.875700
vn 0.482900 -0.875700 -0.000000
vn 0.000000 0.482900 -0.875700
vn 0.000000 0.875700 -0.482900
vn -0.577400 -0.577400 0.577300
vn -0.577300 0.577300 0.577400
vn -0.577300 -0.577300 -0.577400
vn -0.577400 0.577400 -0.577300
vn 0.577400 -0.577400 0.577300
vn 0.577300 0.577300 0.577400
vn 0.577300 -0.577300 -0.577400
vn 0.577400 0.577400 -0.577300
vn -0.707100 -0.000000 0.707100
vn -0.707100 0.707100 0.000000
vn -0.707100 0.000000 -0.707100
vn -0.707100 -0.707100 -0.000000
vn 0.000000 0.707100 -0.707100
vn 0.707100 0.000000 -0.707100
vn 0.000000 -0.707100 -0.707100
vn 0.707100 0.707100 0.000000
vn 0.707100 -0.000000 0.707100
vn 0.707100 -0.707100 -0.000000
vn 0.000000 0.707100 0.707100
vn 0.000000 -0.707100 0.707100
vn -0.875700 -0.000000 0.482900
vn -0.875700 0.482900 0.000000
vn 0.000000 -0.875700 -0.482900
vn 0.482900 -0.000000 0.875700
vn 0.875700 -0.482900 -0.000000
vn 0.000000 0.875700 0.482900
vn 0.000000 0.482900 0.875700
vn -0.875700 0.000000 -0.482900
vn -0.482900 -0.000000 0.875700
vn 0.000000 -0.482900 -0.875700
vn 0.482900 0.875700 0.000000
vn 0.875700 0.000000 -0.482900
vn 0.931700 0.256900 -0.256900
vn 0.931700 0.256900 0.256900
vn 0.875700 -0.000000 0.482900
vn -0.875700 -0.482900 -0.000000
vn -0.482900 -0.875700 -0.000000
vn -0.482900 0.000000 -0.875700
vn 0.482900 0.000000 -0.875700
vn 0.000000 -0.875700 0.482900
vn 0.482900 -0.875700 -0.000000
vn -0.000000 0.482900 -0.875700
vn -0.482900 0.875700 0.000000
vn -0.000000 -0.482900 0.875700
vn -0.000000 -0.875700 0.482900
vn 0.577400 0.577400 -0.577300
vn 0.577300 -0.577300 -0.577400
vn 0.577300 0.577300 0.577400
vn 0.577400 -0.577400 0.577300
vn -0.577400 0.577400 -0.577300
vn -0.577300 -0.577300 -0.577400
vn -0.577300 0.577300 0.577400
vn -0.577400 -0.577400 0.577300
vn 0.707100 0.000000 -0.707100
vn 0.707100 -0.707100 -0.000000
vn 0.707100 -0.000000 0.707100
vn 0.707100 0.707100 0.000000
vn -0.000000 -0.707100 0.707100
vn -0.707100 -0.000000 0.707100
vn -0.000000 0.707100 0.707100
vn -0.707100 -0.707100 -0.000000
vn -0.707100 0.000000 -0.707100
vn -0.707100 0.707100 0.000000
vn -0.000000 -0.707100 -0.707100
vn -0.000000 0.707100 -0.707100
vn 0.875700 0.000000 -0.482900
vn 0.875700 -0.482900 -0.000000
vn -0.000000 0.875700 0.482900
vn -0.482900 0.000000 -0.875700
vn -0.875700 0.482900 0.000000
vn -0.000000 -0.875700 -0.482900
vn -0.000000 -0.482900 -0.875700
vn 0.875700 -0.000000 0.482900
vn 0.482900 0.000000 -0.875700
vn -0.000000 0.482900 0.875700
vn -0.482900 -0.875700 -0.000000
vn -0.875700 -0.000000 0.482900
vn -0.931700 -0.256900 0.256900
vn -0.931700 -0.256900 -0.256900
vn -0.875700 0.000000 -0.482900
vn 0.875700 0.482900 0.000000
vn 0.482900 0.875700 0.000000
vn 0.482900 -0.000000 0.875700
vn -0.482900 -0.000000 0.875700
vn -0.000000 0.875700 -0.482900
vn 0.000000 -1.000000 0.000000
vn 0.000000 1.000000 0.000000
vn 0.000000 -1.000000 0.000000
vn 0.000000 1.000000 0.000000
vn 0.000000 -1.000000 0.000000
vn 0.000000 1.000000 0.000000
vn 0.000000 -1.000000 0.000000
vn 0.000000 1.000000 0.000000
vn 0.000000 -1.000000 0.000000
vn 0.000000 1.000000 0.000000
vn 0.000000 -1.000000 0.000000
vn 0.000000 1.000000 0.000000
vn 0.000000 -1.000000 0.000000
vn 0.000000 1.000000 0.000000
vn 0.000000 -1.000000 0.000000
vn 0.000000 1.000000 0.000000
vn -0.000000 -1.000000 0.000000
vn 0.000000 1.000000 0.000000
vn 0.000000 -1.000000 0.000000
vn 0.000000 1.000000 0.000000
vn 0.000000 -1.000000 0.000000
vn 0.000000 1.000000 0.000000
vn 0.000000 -1.000000 0.000000
vn 0.000000 1.000000 0.000000
vn 0.000000 -1.000000 0.000000
vn 0.000000 1.000000 0.000000
vn 0.000000 -1.000000 0.000000
vn 0.000000 1.000000 0.000000
vn 0.000000 -1.000000 0.000000
vn 0.000000 1.000000 0.000000
vn 0.000000 -1.000000 0.000000
vn 0.000000 1.000000 0.000000
vn 0.000000 -1.000000 0.000000
vn 0.000000 1.000000 0.000000
vn 0.000000 -1.000000 0.000000
vn 0.000000 1.000000 0.000000
vn 0.000000 -1.000000 0.000000
vn 0.000000 1.000000 0.000000
vn 0.000000 -1.000000 0.000000
vn 0.000000 1.000000 0.000000
vn 0.000000 -1.000000 0.000000
vn 0.000000 1.000000 0.000000
vn 0.000000 -1.000000 0.000000
vn 0.000000 1.000000 0.000000
vn 0.000000 -1.000000 0.000000
vn 0.000000 1.000000 0.000000
vn 0.000000 -1.000000 0.000000
vn 0.000000 1.000000 0.000000
vn 0.000000 -1.000000 -0.000000
vn 0.000000 1.000000 0.000000
vn 0.000000 -1.000000 0.000000
vn 0.000000 1.000000 0.000000
vn 0.863310 0.000000 0.504674
vn 0.863310 -0.000000 0.504674
vn 0.689635 0.000000 0.724157
vn 0.689635 -0.000000 0.724157
vn 0.482313 0.000000 0.875999
vn 0.482313 -0.000000 0.875999
vn 0.269720 0.000000 0.962939
vn 0.269720 -0.000000 0.962939
vn 0.067326 0.000000 0.997731
vn 0.067326 -0.000000 0.997731
vn -0.120032 0.000000 0.992770
vn -0.120032 0.000000 0.992770
vn -0.292912 0.000000 0.956139
vn -0.292912 0.000000 0.956139
vn -0.453487 0.000000 0.891263
vn -0.453487 0.000000 0.891263
vn -0.603293 0.000000 0.797520
vn -0.603293 0.000000 0.797520
vn -0.741513 0.000000 0.670939
vn -0.741513 0.000000 0.670939
vn -0.862934 0.000000 0.505317
vn -0.862934 0.000000 0.505317
vn -0.955467 0.000000 0.295098
vn -0.955467 0.000000 0.295098
vn -0.999124 0.000000 0.041854
vn -0.999124 0.000000 0.041854
vn -0.971589 0.000000 -0.236673
vn -0.971589 0.000000 -0.236673
vn -0.863310 0.000000 -0.504674
vn -0.863310 0.000000 -0.504674
vn -0.689635 0.000000 -0.724157
vn -0.689635 0.000000 -0.724157
vn -0.482313 0.000000 -0.875999
vn -0.482313 0.000000 -0.875999
vn -0.269720 0.000000 -0.962939
vn -0.269720 0.000000 -0.962939
vn -0.067326 0.000000 -0.997731
vn -0.067326 0.000000 -0.997731
vn 0.120032 0.000000 -0.992770
vn 0.120032 0.000000 -0.992770
vn 0.292912 0.000000 -0.956139
vn 0.292912 0.000000 -0.956139
vn 0.453487 0.000000 -0.891263
vn 0.453487 0.000000 -0.891263
vn 0.603293 0.000000 -0.797520
vn 0.603293 0.000000 -0.797520
vn 0.741513 0.000000 -0.670939
vn 0.741513 0.000000 -0.670939
vn 0.862934 0.000000 -0.505317
vn 0.862934 0.000000 -0.505317
vn 0.955467 0.000000 -0.295098
vn 0.955467 0.000000 -0.295098
vn 0.999124 0.000000 -0.041854
vn 0.999124 0.000000 -0.041854
vn 0.971589 0.000000 0.236673
vn 0.971589 -0.000000 0.236673
vn 0.000000 -1.000000 0.000000
vn 0.000000 1.000000 0.000000
vn 0.000000 -1.000000 0.000000
vn 0.000000 1.000000 0.000000
vn 0.000000 -1.000000 0.000000
vn 0.000000 1.000000 0.000000
vn 0.000000 -1.000000 0.000000
vn 0.000000 1.000000 0.000000
vn 0.000000 -1.000000 0.000000
vn 0.000000 1.000000 0.000000
vn 0.000000 -1.000000 0.000000
vn 0.000000 1.000000 0.000000
vn 0.000000 -1.000000 0.000000
vn 0.000000 1.000000 0.000000
vn 0.000000 -1.000000 0.000000
vn 0.000000 1.000000 0.000000
vn -0.000000 -1.000000 0.000000
vn 0.000000 1.000000 0.000000
vn 0.000000 -1.000000 0.000000
vn 0.000000 1.000000 0.000000
vn 0.000000 -1.000000 0.000000
vn 0.000000 1.000000 0.000000
vn 0.000000 -1.000000 0.000000
vn 0.000000 1.000000 0.000000
vn 0.000000 -1.000000 0.000000
vn 0.000000 1.000000 0.000000
vn 0.000000 -1.000000 0.000000
vn 0.000000 1.000000 0.000000
vn 0.000000 -1.000000 0.000000
vn 0.000000 1.000000 0.000000
vn 0.000000 -1.000000 0.000000
vn 0.000000 1.000000 0.000000
vn 0.000000 -1.000000 0.000000
vn 0.000000 1.000000 0.000000
vn 0.000000 -1.000000 0.000000
vn 0.000000 1.000000 0.000000
vn 0.000000 -1.000000 0.000000
vn 0.000000 1.000000 0.000000
vn 0.000000 -1.000000 0.000000
vn 0.000000 1.000000 0.000000
vn 0.000000 -1.000000 0.000000
vn 0.000000 1.000000 0.000000
vn 0.000000 -1.000000 0.000000
vn 0.000000 1.000000 0.000000
vn 0.000000 -1.000000 0.000000
vn 0.000000 1.000000 0.000000
vn 0.000000 -1.000000 0.000000
vn 0.000000 1.000000 0.000000
vn 0.000000 -1.000000 -0.000000
vn 0.000000 1.000000 0.000000
vn 0.000000 -1.000000 0.000000
vn 0.000000 1.000000 0.000000
vn 0.863310 0.000000 0.504674
vn 0.863310 -0.000000 0.504674
vn 0.689635 0.000000 0.724157
vn 0.689635 -0.000000 0.724157
vn 0.482313 0.000000 0.875999
vn 0.482313 -0.000000 0.875999
vn 0.269720 0.000000 0.962939
vn 0.269720 -0.000000 0.962939
vn 0.067326 0.000000 0.997731
vn 0.067326 -0.000000 0.997731
vn -0.120032 0.000000 0.992770
vn -0.120032 0.000000 0.992770
vn -0.292912 0.000000 0.956139
vn -0.292912 0.000000 0.956139
vn -0.453487 0.000000 0.891263
vn -0.453487 0.000000 0.891263
vn -0.603293 0.000000 0.797520
vn -0.603293 0.000000 0.797520
vn -0.741513 0.000000 0.670939
vn -0.741513 0.000000 0.670939
vn -0.862934 0.000000 0.505317
vn -0.862934 0.000000 0.505317
vn -0.955467 0.000000 0.295098
vn -0.955467 0.000000 0.295098
vn -0.999124 0.000000 0.041854
vn -0.999124 0.000000 0.041854
vn -0.971589 0.000000 -0.236673
vn -0.971589 0.000000 -0.236673
vn -0.863310 0.000000 -0.504674
vn -0.863310 0.000000 -0.504674
vn -0.689635 0.000000 -0.724157
vn -0.689635 0.000000 -0.724157
vn -0.482313 0.000000 -0.875999
vn -0.482313 0.000000 -0.875999
vn -0.269720 0.000000 -0.962939
vn -0.269720 0.000000 -0.962939
vn -0.067326 0.000000 -0.997731
vn -0.067326 0.000000 -0.997731
vn 0.120032 0.000000 -0.992770
vn 0.120032 0.000000 -0.992770
vn 0.292912 0.000000 -0.956139
vn 0.292912 0.000000 -0.956139
vn 0.453487 0.000000 -0.891263
vn 0.453487 0.000000 -0.891263
vn 0.603293 0.000000 -0.797520
vn 0.603293 0.000000 -0.797520
vn 0.741513 0.000000 -0.670939
vn 0.741513 0.000000 -0.670939
vn 0.862934 0.000000 -0.505317
vn 0.862934 0.000000 -0.505317
vn 0.955467 0.000000 -0.295098
vn 0.955467 0.000000 -0.295098
vn 0.999124 0.000000 -0.041854
vn 0.999124 0.000000 -0.041854
vn 0.971589 0.000000 0.236673
vn 0.971589 -0.000000 0.236673
vn 0.000000 -1.000000 0.000000
vn 0.000000 1.000000 0.000000
vn 0.000000 -1.000000 0.000000
vn 0.000000 1.000000 0.000000
vn 0.000000 0.000000 -1.000000
vn 0.000000 0.000000 -1.000000
vn 1.000000 0.000000 0.000000
vn 1.000000 0.000000 0.000000
vn 0.000000 0.000000 1.000000
vn 0.000000 -0.000000 1.000000
vn -1.000000 0.000000 0.000000
vn -1.000000 0.000000 0.000000
vn 0.000000 -1.000000 0.000000
vn 0.000000 1.000000 0.000000
vn 0.000000 -1.000000 0.000000
vn 0.000000 1.000000 0.000000
vn 0.000000 0.000000 -1.000000
vn 0.000000 0.000000 -1.000000
vn 1.000000 0.000000 0.000000
vn 1.000000 0.000000 0.000000
vn 0.000000 0.000000 1.000000
vn 0.000000 -0.000000 1.000000
vn -1.000000 0.000000 0.000000
vn -1.000000 0.000000 0.000000
vn 0.000000 -1.000000 0.000000
vn 0.000000 1.000000 0.000000
vn 0.000000 -1.000000 0.000000
vn 0.000000 1.000000 0.000000
vn 0.371391 0.000000 -0.928477
vn 0.371391 0.000000 -0.928477
vn 1.000000 0.000000 0.000000
vn 1.000000 0.000000 0.000000
vn -0.371391 0.000000 0.928477
vn -0.371391 0.000000 0.928477
vn -1.000000 0.000000 0.000000
vn -1.000000 0.000000 0.000000
vn 0.000000 -1.000000 0.000000
vn 0.000000 1.000000 0.000000
vn 0.000000 -1.000000 0.000000
vn 0.000000 1.000000 0.000000
vn 0.371391 0.000000 -0.928477
vn 0.371391 0.000000 -0.928477
vn 1.000000 0.000000 0.000000
vn 1.000000 0.000000 0.000000
vn -0.371391 0.000000 0.928477
vn -0.371391 0.000000 0.928477
vn -1.000000 0.000000 0.000000
vn -1.000000 0.000000 0.000000
s off
f 1/1/1 2/2/1 3/3/1 4/4/1
f 5/5/2 6/6/2 7/7/2 8/8/2
f 9/9/3 10/10/3 11/11/3 12/12/3
f 13/13/4 14/14/4 15/15/4 16/16/4
f 17/17/5 1/1/5 4/4/5 18/18/5
f 19/19/6 20/20/6 9/9/6
f 6/6/7 17/17/7 21/21/7
f 14/14/8 10/10/8 22/22/8
f 23/23/9 24/24/9 25/25/9
f 26/26/10 27/27/10 28/28/10
f 1/1/11 5/5/11 29/29/11
f 30/30/12 31/31/12 13/13/12
f 2/2/13 32/32/13 33/33/13
f 19/19/14 6/6/14 21/21/14 20/20/14
f 17/17/15 23/23/15 25/25/15 21/21/15
f 24/24/16 14/14/16 22/22/16 25/25/16
f 10/10/17 9/9/17 20/20/17 22/22/17
f 23/23/18 2/2/18 33/33/18 24/24/18
f 32/32/19 30/30/19 13/13/19 33/33/19
f 31/31/20 10/10/20 14/14/20 13/13/20
f 2/2/21 1/1/21 29/29/21 32/32/21
f 5/5/22 26/26/22 28/28/22 29/29/22
f 27/27/23 31/31/23 30/30/23 28/28/23
f 1/1/24 17/17/24 6/6/24 5/5/24
f 9/9/25 27/27/25 26/26/25 19/19/25
f 25/25/26 22/22/26 34/34/26 35/35/26
f 22/22/27 20/20/27 36/36/27 34/34/27
f 27/27/28 9/9/28 12/12/28 37/37/28
f 6/6/29 19/19/29 38/38/29 7/7/29
f 32/32/30 29/29/30 39/39/30 40/40/30
f 2/2/31 23/23/31 41/41/31 3/3/31
f 19/19/32 26/26/32 42/42/32 38/38/32
f 20/20/33 21/21/33 43/43/33 36/36/33
f 26/26/34 5/5/34 8/8/34 42/42/34
f 24/24/35 33/33/35 44/44/35 45/45/35
f 23/23/36 17/17/36 18/18/36 41/41/36
f 29/29/37 28/28/38 46/46/38 39/39/37
f 30/30/39 32/32/40 40/40/40 47/47/39
f 21/21/41 25/25/41 35/35/41 43/43/41
f 31/31/42 27/27/42 37/37/42 48/48/42
f 33/33/43 13/13/43 16/16/43 44/44/43
f 14/14/44 24/24/44 45/45/44 15/15/44
f 28/28/38 30/30/39 47/47/39 46/46/38
f 10/10/45 31/31/45 48/48/45 11/11/45
f 4/4/46 3/3/46 2/2/46 1/1/46
f 8/8/47 7/7/47 6/6/47 5/5/47
f 12/12/48 11/11/48 10/10/48 9/9/48
f 16/16/49 15/15/49 14/14/49 13/13/49
f 18/18/50 4/4/50 1/1/50 17/17/50
f 9/9/51 20/20/51 19/19/51
f 21/21/52 17/17/52 6/6/52
f 22/22/53 10/10/53 14/14/53
f 25/25/54 24/24/54 23/23/54
f 28/28/55 27/27/55 26/26/55
f 29/29/56 5/5/56 1/1/56
f 13/13/57 31/31/57 30/30/57
f 33/33/58 32/32/58 2/2/58
f 20/20/59 21/21/59 6/6/59 19/19/59
f 21/21/60 25/25/60 23/23/60 17/17/60
f 25/25/61 22/22/61 14/14/61 24/24/61
f 22/22/62 20/20/62 9/9/62 10/10/62
f 24/24/63 33/33/63 2/2/63 23/23/63
f 33/33/64 13/13/64 30/30/64 32/32/64
f 13/13/65 14/14/65 10/10/65 31/31/65
f 32/32/66 29/29/66 1/1/66 2/2/66
f 29/29/67 28/28/67 26/26/67 5/5/67
f 28/28/68 30/30/68 31/31/68 27/27/68
f 5/5/69 6/6/69 17/17/69 1/1/69
f 19/19/70 26/26/70 27/27/70 9/9/70
f 35/35/71 34/34/71 22/22/71 25/25/71
f 34/34/72 36/36/72 20/20/72 22/22/72
f 37/37/73 12/12/73 9/9/73 27/27/73
f 7/7/74 38/38/74 19/19/74 6/6/74
f 40/40/75 39/39/75 29/29/75 32/32/75
f 3/3/76 41/41/76 23/23/76 2/2/76
f 38/38/77 42/42/77 26/26/77 19/19/77
f 36/36/78 43/43/78 21/21/78 20/20/78
f 42/42/79 8/8/79 5/5/79 26/26/79
f 45/45/80 44/44/80 33/33/80 24/24/80
f 41/41/81 18/18/81 17/17/81 23/23/81
f 39/39/82 46/46/83 28/28/83 29/29/82
f 47/47/84 40/40/85 32/32/85 30/30/84
f 43/43/86 35/35/86 25/25/86 21/21/86
f 48/48/87 37/37/87 27/27/87 31/31/87
f 44/44/88 16/16/88 13/13/88 33/33/88
f 15/15/89 45/45/89 24/24/89 14/14/89
f 46/46/83 47/47/84 30/30/84 28/28/83
f 11/11/90 48/48/90 31/31/90 10/10/90
f 49/49/91 50/49/91 51/49/91
f 52/49/92 53/49/92 54/49/92
f 55/49/93 56/49/93 57/49/93
f 58/49/94 59/49/94 60/49/94
f 61/49/95 62/49/95 63/49/95
f 64/49/96 65/49/96 66/49/96
f 67/49/97 68/49/97 69/49/97
f 70/49/98 71/49/98 72/49/98
f 73/49/99 74/49/99 75/49/99
f 76/49/100 77/49/100 78/49/100
f 79/49/101 80/49/101 81/49/101
f 82/49/102 83/49/102 84/49/102
f 85/49/103 86/49/103 87/49/103
f 88/49/104 89/49/104 90/49/104
f 91/49/105 92/49/105 93/49/105
f 94/49/106 95/49/106 96/49/106
f 97/49/107 98/49/107 99/49/107
f 100/49/108 101/49/108 102/49/108
f 103/49/109 104/49/109 105/49/109
f 106/49/110 107/49/110 108/49/110
f 109/49/111 110/49/111 111/49/111
f 112/49/112 113/49/112 114/49/112
f 115/49/113 116/49/113 117/49/113
f 118/49/114 119/49/114 120/49/114
f 121/49/115 122/49/115 123/49/115
f 124/49/116 125/49/116 126/49/116
f 127/49/117 128/49/117 129/49/117
f 130/49/118 131/49/118 132/49/118
f 133/49/119 134/49/119 135/49/119
f 136/49/120 137/49/120 138/49/120
f 139/49/121 140/49/121 141/49/121
f 142/49/122 143/49/122 144/49/122
f 145/49/123 146/49/123 147/49/123
f 148/49/124 149/49/124 150/49/124
f 151/49/125 152/49/125 153/49/125
f 154/49/126 155/49/126 156/49/126
f 157/49/127 158/49/127 159/49/127
f 160/49/128 161/49/128 162/49/128
f 163/49/129 164/49/129 165/49/129
f 166/49/130 167/49/130 168/49/130
f 169/49/131 170/49/131 171/49/131
f 172/49/132 173/49/132 174/49/132
f 175/49/133 176/49/133 177/49/133
f 178/49/134 179/49/134 180/49/134
f 181/49/135 182/49/135 183/49/135
f 184/49/136 185/49/136 186/49/136
f 187/49/137 188/49/137 189/49/137
f 190/49/138 191/49/138 192/49/138
f 193/49/139 194/49/139 195/49/139
f 196/49/140 197/49/140 198/49/140
f 199/49/141 200/49/141 201/49/141
f 202/49/142 203/49/142 204/49/142
f 205/49/143 206/49/143 207/49/143
f 208/49/144 209/49/144 210/49/144
f 211/49/145 212/49/145 213/49/145
f 214/49/146 215/49/146 216/49/146
f 217/49/147 218/49/147 219/49/147
f 220/49/148 221/49/148 222/49/148
f 223/49/149 224/49/149 225/49/149
f 226/49/150 227/49/150 228/49/150
f 229/49/151 230/49/151 231/49/151
f 232/49/152 233/49/152 234/49/152
f 235/49/153 236/49/153 237/49/153
f 238/49/154 239/49/154 240/49/154
f 241/49/155 242/49/155 243/49/155
f 244/49/156 245/49/156 246/49/156
f 247/49/157 248/49/157 249/49/157
f 250/49/158 251/49/158 252/49/158
f 253/49/159 254/49/159 255/49/159
f 256/49/160 257/49/160 258/49/160
f 259/49/161 260/49/161 261/49/161
f 262/49/162 263/49/162 264/49/162
f 265/49/163 266/49/163 267/49/163
f 268/49/164 269/49/164 270/49/164
f 271/49/165 272/49/165 273/49/165
f 274/49/166 275/49/166 276/49/166
f 277/49/167 278/49/167 279/49/167
f 280/49/168 281/49/168 282/49/168
f 283/49/169 284/49/169 285/49/169
f 286/49/170 287/49/170 288/49/170
f 289/49/171 290/49/171 291/49/171
f 292/49/172 293/49/172 294/49/172
f 295/49/173 296/49/173 297/49/173
f 298/49/174 299/49/174 300/49/174
f 301/49/175 302/49/175 303/49/175
f 304/49/176 305/49/176 306/49/176
f 307/49/177 308/49/177 309/49/177
f 310/49/178 311/49/178 312/49/178
f 313/49/179 314/49/179 315/49/179
f 316/49/180 317/49/180 318/49/180
f 319/49/181 320/49/181 321/49/181
f 322/49/182 323/49/182 324/49/182
f 325/49/183 326/49/183 327/49/183
f 328/49/184 329/49/184 330/49/184
f 331/49/185 332/49/185 333/49/185
f 334/49/186 335/49/186 336/49/186
f 337/49/187 338/49/187 339/49/187
f 340/49/188 341/49/188 342/49/188
f 343/49/189 344/49/189 345/49/189
f 346/49/190 347/49/190 348/49/190
f 349/49/191 350/49/191 351/49/191
f 352/49/192 353/49/192 354/49/192
f 355/49/193 356/49/193 357/49/193
f 358/49/194 359/49/194 360/49/194
f 361/49/195 362/49/195 363/49/195
f 364/49/196 365/49/196 366/49/196
f 367/49/197 368/49/197 369/49/197
f 370/49/198 371/49/198 372/49/198
f 373/49/199 374/49/199 375/49/199
f 376/49/200 377/49/200 378/49/200
f 379/49/201 380/49/201 381/49/201
f 382/49/202 383/49/202 384/49/202
f 385/49/203 386/49/203 387/49/203
f 388/49/204 389/49/204 390/49/204
f 391/49/205 392/49/205 393/49/205
f 394/49/206 395/49/206 396/49/206
f 397/49/207 398/49/207 399/49/207
f 400/49/208 401/49/208 402/49/208
f 403/49/209 404/49/209 405/49/209
f 406/49/210 407/49/210 408/49/210
f 409/49/211 410/49/211 411/49/211
f 412/49/212 413/49/212 414/49/212
f 415/49/213 416/49/213 417/49/213
f 418/49/214 419/49/214 420/49/214
f 421/49/215 422/49/215 423/49/215
f 424/49/216 425/49/216 426/49/216
f 427/49/217 428/49/217 429/49/217
f 430/49/218 431/49/218 432/49/218
f 433/49/219 434/49/219 435/49/219
f 436/49/220 437/49/220 438/49/220
f 439/49/221 440/49/221 441/49/221
f 442/49/222 443/49/222 444/49/222
f 445/49/223 446/49/223 447/49/223
f 448/49/224 449/49/224 450/49/224
f 451/49/225 452/49/225 453/49/225
f 454/49/226 455/49/226 456/49/226
f 457/49/227 458/49/227 459/49/227
f 460/49/228 461/49/228 462/49/228
f 463/49/229 464/49/229 465/49/229
f 466/49/230 467/49/230 468/49/230
f 469/49/231 470/49/231 471/49/231
f 472/49/232 473/49/232 474/49/232
f 475/49/233 476/49/233 477/49/233
f 478/49/234 479/49/234 480/49/234
f 481/49/235 482/49/235 483/49/235
f 484/49/236 485/49/236 486/49/236
f 487/49/237 488/49/237 489/49/237
f 490/49/238 491/49/238 492/49/238
f 493/49/239 494/49/239 495/49/239
f 496/49/240 497/49/240 498/49/240
f 499/49/241 500/49/241 501/49/241
f 502/49/242 503/49/242 504/49/242
f 505/49/243 506/49/243 507/49/243
f 508/49/244 509/49/244 510/49/244
f 511/49/245 512/49/245 513/49/245
f 514/49/246 515/49/246 516/49/246
f 517/49/247 518/49/247 519/49/247
f 520/49/248 521/49/248 522/49/248
f 523/49/249 524/49/249 525/49/249
f 526/49/250 527/49/250 528/49/250
f 529/49/251 530/49/251 531/49/251
f 532/49/252 533/49/252 534/49/252
f 535/49/253 536/49/253 537/49/253
f 538/49/254 539/49/254 540/49/254
f 541/49/255 542/49/255 543/49/255
f 544/49/256 545/49/256 546/49/256
f 547/49/257 548/49/257 549/49/257
f 550/49/258 551/49/258 552/49/258
f 553/49/259 554/49/259 555/49/259
f 556/49/260 557/49/260 558/49/260
f 559/49/261 560/49/261 561/49/261
f 562/49/262 563/49/262 564/49/262
f 565/49/263 566/49/263 567/49/263
f 568/49/264 569/49/264 570/49/264
f 571/49/265 572/49/265 573/49/265
f 574/49/266 575/49/266 576/49/266
f 577/49/267 578/49/267 579/49/267
f 580/49/268 581/49/268 582/49/268
f 583/49/269 584/49/269 585/49/269
f 586/49/270 587/49/270 588/49/270
f 589/49/271 590/49/271 591/49/271
f 592/49/272 593/49/272 594/49/272
f 595/49/273 596/49/273 597/49/273
f 598/49/274 599/49/274 600/49/274
f 601/49/275 602/49/275 603/49/275
f 604/49/276 605/49/276 606/49/276
f 607/49/277 608/49/277 609/49/277
f 610/49/278 611/49/278 612/49/278
f 613/49/279 614/49/279 615/49/279
f 616/49/280 617/49/280 618/49/280
f 619/49/281 620/49/281 621/49/281
f 622/49/282 623/49/282 624/49/282
f 625/49/283 626/49/283 627/49/283
f 628/49/284 629/49/284 630/49/284
f 631/49/285 632/49/285 633/49/285
f 634/49/286 635/49/286 636/49/286
f 637/49/287 638/49/287 639/49/287
f 640/49/288 641/49/288 642/49/288
f 643/49/289 644/49/289 645/49/289
f 646/49/290 647/49/290 648/49/290
f 649/49/291 650/49/291 651/49/291
f 652/49/292 653/49/292 654/49/292
f 655/49/293 656/49/293 657/49/293
f 658/49/294 659/49/294 660/49/294
f 661/49/295 662/49/295 663/49/295
f 664/49/296 665/49/296 666/49/296
f 667/49/297 668/49/297 669/49/297
f 670/49/298 671/49/298 672/49/298
f 673/49/299 674/49/299 675/49/299
f 676/49/300 677/49/300 678/49/300
f 679/49/301 680/49/301 681/49/301
f 682/49/302 683/49/302 684/49/302
f 685/49/303 686/49/303 687/49/303
f 688/49/304 689/49/304 690/49/304
f 691/49/305 692/49/305 693/49/305
f 694/49/306 695/49/306 696/49/306
f 697/49/307 698/49/307 699/49/307
f 700/49/308 701/49/308 702/49/308
f 703/49/309 704/49/309 705/49/309
f 706/49/310 707/49/310 708/49/310
f 709/49/311 710/49/311 711/49/311
f 712/49/312 713/49/312 714/49/312
f 715/49/313 716/49/313 717/49/313
f 718/49/314 719/49/314 720/49/314
f 721/49/315 722/49/315 723/49/315
f 724/49/316 725/49/316 726/49/316
f 727/49/317 728/49/317 729/49/317
f 730/49/318 731/49/318 732/49/318
f 733/49/319 734/49/319 735/49/319
f 736/49/320 737/49/320 738/49/320
f 739/49/321 740/49/321 741/49/321
f 742/49/322 743/49/322 744/49/322
f 745/49/323 746/49/323 747/49/323
f 748/49/324 749/49/324 750/49/324
f 751/49/325 752/49/325 753/49/325
f 754/49/326 755/49/326 756/49/326
f 757/49/327 758/49/327 759/49/327
f 760/49/328 761/49/328 762/49/328
f 763/49/329 764/49/329 765/49/329
f 766/49/330 767/49/330 768/49/330
f 769/49/331 770/49/331 771/49/331
f 772/49/332 773/49/332 774/49/332
f 775/49/333 776/49/333 777/49/333
f 778/49/334 779/49/334 780/49/334
f 781/49/335 782/49/335 783/49/335
f 784/49/336 785/49/336 786/49/336
f 787/49/337 788/49/337 789/49/337
f 790/49/338 791/49/338 792/49/338
f 793/49/339 794/49/339 795/49/339
f 796/49/340 797/49/340 798/49/340
f 799/49/341 800/49/341 801/49/341
f 802/49/342 803/49/342 804/49/342
f 805/49/343 806/49/343 807/49/343
f 808/49/344 809/49/344 810/49/344
f 811/49/345 812/49/345 813/49/345
f 814/49/346 815/49/346 816/49/346
f 817/49/347 818/49/347 819/49/347
f 820/49/348 821/49/348 822/49/348
f 823/49/349 824/49/349 825/49/349
f 826/49/350 827/49/350 828/49/350
f 829/49/351 830/49/351 831/49/351
f 832/49/352 833/49/352 834/49/352
f 835/49/353 836/49/353 837/49/353
f 838/49/354 839/49/354 840/49/354
