# Braids Synth block: the Special Effects text block's cage, with the
# letter stripped out so the note inside it is what you see.
# Derived from SpecialEffects (wizz6rd + dagriefaa), Workshop 2870726285.
o SynthBlockCage
v 0.900248 1.000276 0.900248
v 0.900248 1.000276 -0.900248
v 0.601632 0.835600 -0.601631
v 0.601632 0.835599 0.601632
v 0.900248 0.900248 1.000276
v -0.900248 0.900248 1.000276
v -0.601632 0.601631 0.835600
v 0.601632 0.601631 0.835600
v -0.900248 -1.000276 0.900248
v -0.900248 -1.000276 -0.900248
v -0.601632 -0.835599 -0.601632
v -0.601632 -0.835600 0.601631
v 0.900248 -0.900248 -1.000276
v -0.900248 -0.900248 -1.000276
v -0.601632 -0.601631 -0.835600
v 0.601632 -0.601631 -0.835600
v -0.900248 1.000276 0.900248
v -0.601632 0.835599 0.601632
v -0.900248 -0.900248 1.000276
v -1.000276 -0.900248 0.900248
v -1.000276 0.900248 0.900248
v -1.000276 -0.900248 -0.900248
v -0.900248 1.000276 -0.900248
v -0.900248 0.900248 -1.000276
v -1.000276 0.900248 -0.900248
v 0.900248 -0.900248 1.000276
v 0.900248 -1.000276 0.900248
v 1.000276 -0.900248 0.900248
v 1.000276 0.900248 0.900248
v 1.000276 -0.900248 -0.900248
v 0.900248 -1.000276 -0.900248
v 1.000276 0.900248 -0.900248
v 0.900248 0.900248 -1.000276
v -0.835600 -0.601631 -0.601632
v -0.835600 0.601632 -0.601631
v -0.835600 -0.601632 0.601631
v 0.601632 -0.835600 0.601631
v -0.601632 -0.601632 0.835599
v 0.835600 0.601631 0.601632
v 0.835600 0.601632 -0.601631
v -0.601632 0.835600 -0.601631
v 0.601632 -0.601632 0.835599
v -0.835600 0.601631 0.601632
v 0.601632 0.601632 -0.835599
v -0.601632 0.601632 -0.835599
v 0.835600 -0.601632 0.601631
v 0.835600 -0.601631 -0.601632
v 0.601632 -0.835599 -0.601632
vt 0.815456 0.815032
vt 0.812246 0.766669
vt 0.819341 0.770017
vt 0.822138 0.811404
vt 0.812169 0.818585
vt 0.890468 0.896864
vt 0.852591 0.880206
vt 0.808699 0.825683
vt 0.680212 0.900306
vt 0.668048 0.688726
vt 0.692928 0.728939
vt 0.697527 0.859547
vt 0.762544 0.766232
vt 0.676300 0.679751
vt 0.717691 0.698349
vt 0.765645 0.759465
vt 0.897965 0.888771
vt 0.876119 0.852499
vt 0.688836 0.908046
vt 0.663422 0.927922
vt 0.916339 0.913063
vt 0.647226 0.661628
vt 0.897133 0.686459
vt 0.888697 0.678455
vt 0.914590 0.659225
vt 0.763594 0.819124
vt 0.760164 0.815970
vt 0.764136 0.815116
vt 0.811307 0.814500
vt 0.763380 0.770057
vt 0.759501 0.769515
vt 0.808292 0.767522
vt 0.808836 0.763486
vt 0.613582 0.629035
vt 0.945341 0.629035
vt 0.631752 0.959738
vt 0.753298 0.812732
vt 0.725766 0.884555
vt 0.805099 0.809086
vt 0.803217 0.773488
vt 0.879308 0.724902
vt 0.767245 0.825794
vt 0.944855 0.943025
vt 0.805385 0.756935
vt 0.849182 0.701546
vt 0.769410 0.809302
vt 0.768977 0.774988
vt 0.753057 0.772963
vn -0.482900 0.875700 0.000000
vn 0.000000 -0.482900 0.875700
vn 0.482900 -0.875700 -0.000000
vn 0.000000 0.482900 -0.875700
vn 0.000000 0.875700 -0.482900
vn -0.577400 -0.577400 0.577300
vn -0.577300 0.577300 0.577400
vn -0.577300 -0.577300 -0.577400
vn -0.577400 0.577400 -0.577300
vn 0.577400 -0.577400 0.577300
vn 0.577300 0.577300 0.577400
vn 0.577300 -0.577300 -0.577400
vn 0.577400 0.577400 -0.577300
vn -0.707100 -0.000000 0.707100
vn -0.707100 0.707100 0.000000
vn -0.707100 0.000000 -0.707100
vn -0.707100 -0.707100 -0.000000
vn 0.000000 0.707100 -0.707100
vn 0.707100 0.000000 -0.707100
vn 0.000000 -0.707100 -0.707100
vn 0.707100 0.707100 0.000000
vn 0.707100 -0.000000 0.707100
vn 0.707100 -0.707100 -0.000000
vn 0.000000 0.707100 0.707100
vn 0.000000 -0.707100 0.707100
vn -0.875700 -0.000000 0.482900
vn -0.875700 0.482900 0.000000
vn 0.000000 -0.875700 -0.482900
vn 0.482900 -0.000000 0.875700
vn 0.875700 -0.482900 -0.000000
vn 0.000000 0.875700 0.482900
vn 0.000000 0.482900 0.875700
vn -0.875700 0.000000 -0.482900
vn -0.482900 -0.000000 0.875700
vn 0.000000 -0.482900 -0.875700
vn 0.482900 0.875700 0.000000
vn 0.875700 0.000000 -0.482900
vn 0.931700 0.256900 -0.256900
vn 0.931700 0.256900 0.256900
vn 0.875700 -0.000000 0.482900
vn -0.875700 -0.482900 -0.000000
vn -0.482900 -0.875700 -0.000000
vn -0.482900 0.000000 -0.875700
vn 0.482900 0.000000 -0.875700
vn 0.000000 -0.875700 0.482900
s off
f 1/1/1 2/2/1 3/3/1 4/4/1
f 5/5/2 6/6/2 7/7/2 8/8/2
f 9/9/3 10/10/3 11/11/3 12/12/3
f 13/13/4 14/14/4 15/15/4 16/16/4
f 17/17/5 1/1/5 4/4/5 18/18/5
f 19/19/6 20/20/6 9/9/6
f 6/6/7 17/17/7 21/21/7
f 14/14/8 10/10/8 22/22/8
f 23/23/9 24/24/9 25/25/9
f 26/26/10 27/27/10 28/28/10
f 1/1/11 5/5/11 29/29/11
f 30/30/12 31/31/12 13/13/12
f 2/2/13 32/32/13 33/33/13
f 19/19/14 6/6/14 21/21/14 20/20/14
f 17/17/15 23/23/15 25/25/15 21/21/15
f 24/24/16 14/14/16 22/22/16 25/25/16
f 10/10/17 9/9/17 20/20/17 22/22/17
f 23/23/18 2/2/18 33/33/18 24/24/18
f 32/32/19 30/30/19 13/13/19 33/33/19
f 31/31/20 10/10/20 14/14/20 13/13/20
f 2/2/21 1/1/21 29/29/21 32/32/21
f 5/5/22 26/26/22 28/28/22 29/29/22
f 27/27/23 31/31/23 30/30/23 28/28/23
f 1/1/24 17/17/24 6/6/24 5/5/24
f 9/9/25 27/27/25 26/26/25 19/19/25
f 25/25/26 22/22/26 34/34/26 35/35/26
f 22/22/27 20/20/27 36/36/27 34/34/27
f 27/27/28 9/9/28 12/12/28 37/37/28
f 6/6/29 19/19/29 38/38/29 7/7/29
f 32/32/30 29/29/30 39/39/30 40/40/30
f 2/2/31 23/23/31 41/41/31 3/3/31
f 19/19/32 26/26/32 42/42/32 38/38/32
f 20/20/33 21/21/33 43/43/33 36/36/33
f 26/26/34 5/5/34 8/8/34 42/42/34
f 24/24/35 33/33/35 44/44/35 45/45/35
f 23/23/36 17/17/36 18/18/36 41/41/36
f 29/29/37 28/28/38 46/46/38 39/39/37
f 30/30/39 32/32/40 40/40/40 47/47/39
f 21/21/41 25/25/41 35/35/41 43/43/41
f 31/31/42 27/27/42 37/37/42 48/48/42
f 33/33/43 13/13/43 16/16/43 44/44/43
f 14/14/44 24/24/44 45/45/44 15/15/44
f 28/28/38 30/30/39 47/47/39 46/46/38
f 10/10/45 31/31/45 48/48/45 11/11/45
